<?xml version="1.0"?>

<!DOCTYPE svg PUBLIC '-//W3C//DTD SVG 1.0//EN' 'http://www.w3.org/TR/2001/REC-SVG-20010904/DTD/svg10.dtd'>
<svg fill-opacity="1" xmlns:xlink="http://www.w3.org/1999/xlink" color-rendering="auto" color-interpolation="auto" text-rendering="auto" stroke="black" stroke-linecap="square" stroke-miterlimit="10" shape-rendering="auto" stroke-opacity="1" fill="black" stroke-dasharray="none" font-weight="normal" stroke-width="1" xmlns="http://www.w3.org/2000/svg" font-family="&apos;Dialog&apos;" font-style="normal" stroke-linejoin="miter" font-size="12" stroke-dashoffset="0" image-rendering="auto">
  <!--Unicode Character 'BRIEFCASE' (U+1F4BC)-->
  <defs id="genericDefs" />
  <g>
    <g>
      <path d="M282.375 284.3438 Q282.375 287.8594 280.8281 293.0625 Q279.4219 297.7031 272.3906 302.4844 Q266.4844 306.7031 260.7188 308.25 Q259.875 311.4844 258.4688 314.8594 L242.7188 314.8594 Q242.5781 314.7188 240.4688 310.9219 Q238.7812 307.8281 238.2188 307.8281 Q237.9375 307.8281 227.1094 308.9531 Q201.2344 311.7656 152.0156 316.125 Q136.125 317.8125 104.3438 320.4844 Q86.4844 321.75 74.8125 322.875 Q71.0156 323.1562 63.8438 324.1406 Q62.2969 324.4219 61.3125 327.5859 Q60.3281 330.75 58.9219 330.75 L42.6094 330.75 Q41.9062 330.0469 38.5312 324.7031 Q32.0625 324.7031 24.1875 318.0938 Q17.7188 312.75 13.6406 306 Q11.5312 302.625 11.5312 302.625 L11.5312 138.375 Q11.5312 134.1562 13.9219 130.2188 Q18.5625 122.625 27 120.0938 Q32.3438 118.5469 43.875 118.5469 Q44.4375 117.1406 46.5469 110.6719 L80.1562 108.9844 Q82.5469 108.8438 83.9531 111.7969 Q84.9375 114.3281 85.9219 116.8594 L101.25 116.8594 Q103.0781 110.5312 107.1562 98.0156 Q108.4219 93.0938 109.8281 87.8203 Q111.2344 82.5469 114.8203 79.6641 Q118.4062 76.7812 121.6406 76.7812 L182.8125 76.7812 Q184.0781 76.7812 187.7344 79.1719 Q190.6875 87.8906 194.625 101.6719 Q195.4688 105.4688 197.7188 112.6406 Q197.8594 112.9219 198.5625 112.9219 Q201.2344 112.9219 206.6484 112.7109 Q212.0625 112.5 214.875 112.5 Q215.2969 109.8281 216.2812 104.625 L246.9375 104.625 Q248.625 108.8438 250.0312 111.0938 L270.1406 111.0938 Q271.9688 111.0938 275.625 113.0625 Q276.6094 113.625 279.4922 117.5625 Q282.375 121.5 282.375 122.3438 L282.375 284.3438 ZM185.7656 113.3438 L185.7656 110.3906 Q185.7656 103.2188 180.8438 97.0312 L180.8438 113.3438 L185.7656 113.3438 ZM175.6406 113.2031 L175.6406 97.1719 Q175.6406 94.3594 171 94.3594 L130.9219 94.3594 Q128.5312 94.3594 125.4375 96.75 L125.4375 115.0312 L175.6406 113.2031 ZM182.25 85.5 L180.8438 84.2344 L122.0625 84.2344 Q117.5625 84.2344 115.7344 89.2969 Q112.9219 97.0312 107.2969 115.875 Q108 116.1562 108.7031 116.1562 Q111.0938 116.1562 112.9219 111.5156 Q114.1875 108.2812 115.3125 104.9062 Q116.7188 99.4219 121.0781 89.4375 Q123.4688 85.5 126.5625 85.5 L182.25 85.5 ZM274.7812 288.7031 L274.7812 128.5312 Q274.7812 126.5625 272.9531 123.3984 Q271.125 120.2344 269.4375 119.6719 Q265.2188 118.4062 256.2188 118.2656 Q244.4062 117.9844 242.5781 117.8438 Q242.5781 117 242.2266 115.3828 Q241.875 113.7656 241.875 112.9219 Q241.875 111.7969 242.5781 111.2344 L224.1562 111.2344 Q223.7344 113.9062 222.4688 119.1094 L83.3906 124.3125 Q79.7344 124.4531 78.75 122.2031 Q77.4844 119.1094 76.2188 116.0156 Q61.875 116.8594 54 117.8438 Q53.1562 122.625 52.1719 125.1562 Q33.8906 125.7188 33.8906 125.7188 Q31.0781 125.7188 25.6641 129.5859 Q20.25 133.4531 19.6875 135.9141 Q19.125 138.375 19.125 141.8906 L19.125 302.2031 Q19.125 305.8594 24.4688 311.625 Q29.8125 317.3906 35.7188 317.1094 L35.7188 151.0312 Q35.7188 146.8125 40.7812 144.7031 L41.625 145.2656 Q38.5312 149.4844 38.5312 149.3438 L38.5312 309.7969 Q38.5312 312.0469 40.4297 315.2109 Q42.3281 318.375 51.8906 318.375 Q52.1719 318.375 68.9062 316.9688 L234.5625 302.9062 Q239.9062 302.3438 250.4531 301.3594 Q253.6875 301.2188 260.1562 300.6562 Q264.6562 299.9531 266.7656 298.4062 Q268.0312 297.4219 271.4062 293.5547 Q274.7812 289.6875 274.7812 288.7031 Z" stroke="none" />
    </g>
  </g>
</svg>
