<?xml version="1.0" encoding="UTF-8" standalone="no"?>
<!-- Created with Inkscape (http://www.inkscape.org/) -->

<svg
   xmlns:dc="http://purl.org/dc/elements/1.1/"
   xmlns:cc="http://creativecommons.org/ns#"
   xmlns:rdf="http://www.w3.org/1999/02/22-rdf-syntax-ns#"
   xmlns:svg="http://www.w3.org/2000/svg"
   xmlns="http://www.w3.org/2000/svg"
   xmlns:sodipodi="http://sodipodi.sourceforge.net/DTD/sodipodi-0.dtd"
   xmlns:inkscape="http://www.inkscape.org/namespaces/inkscape"
   width="210mm"
   height="297mm"
   viewBox="0 0 744.09448819 1052.3622047"
   id="svg2"
   version="1.1"
   inkscape:version="0.92.1 r"
   sodipodi:docname="mimeTypes.svg">
  <defs
     id="defs4" />
  <sodipodi:namedview
     id="base"
     pagecolor="#ffffff"
     bordercolor="#666666"
     borderopacity="1.0"
     inkscape:pageopacity="0.0"
     inkscape:pageshadow="2"
     inkscape:zoom="6.3324207"
     inkscape:cx="319.917"
     inkscape:cy="842.97924"
     inkscape:document-units="px"
     inkscape:current-layer="layer1"
     showgrid="false"
     inkscape:window-width="1920"
     inkscape:window-height="1011"
     inkscape:window-x="0"
     inkscape:window-y="0"
     inkscape:window-maximized="1" />
  <metadata
     id="metadata7">
    <rdf:RDF>
      <cc:Work
         rdf:about="">
        <dc:format>image/svg+xml</dc:format>
        <dc:type
           rdf:resource="http://purl.org/dc/dcmitype/StillImage" />
        <dc:title />
      </cc:Work>
    </rdf:RDF>
  </metadata>
  <g
     inkscape:label="Layer 1"
     inkscape:groupmode="layer"
     id="layer1">
    <g
       id="g4264">
      <rect
         y="478.80582"
         x="504.70432"
         height="25.89847"
         width="20.529274"
         id="rect4242"
         style="fill:#000000;fill-opacity:1;stroke:none" />
      <g
         inkscape:export-ydpi="120.00008"
         inkscape:export-xdpi="120.00008"
         transform="matrix(2,0,0,2,491.44271,468.70259)"
         id="g3438"
         style="fill:#000000">
        <path
           style="fill:none"
           inkscape:connector-curvature="0"
           d="M 0,0 24,0 24,24 0,24 Z"
           id="path3428" />
        <path
           style="fill:#ff7f2a;fill-opacity:1"
           inkscape:connector-curvature="0"
           d="M 12,2 C 6.48,2 2,6.48 2,12 2,17.52 6.48,22 12,22 17.52,22 22,17.52 22,12 22,6.48 17.52,2 12,2 Z m -2,14.5 0,-9 6,4.5 -6,4.5 z"
           id="path3430" />
      </g>
    </g>
    <g
       id="g4270"
       inkscape:export-xdpi="120.00008"
       inkscape:export-ydpi="120.00008">
      <rect
         y="351.89658"
         x="260.56387"
         height="15.002162"
         width="30.32016"
         id="rect4262"
         style="fill:#000000;fill-opacity:1;stroke:none" />
      <g
         transform="matrix(2,0,0,2,252.03979,329.10352)"
         id="g4258"
         style="fill:#000000">
        <path
           style="fill:none"
           inkscape:connector-curvature="0"
           d="M 0,0 24,0 24,24 0,24 Z"
           id="path4248" />
        <path
           style="fill:#ff7f2a;fill-opacity:1"
           inkscape:connector-curvature="0"
           d="M 21,19 21,5 C 21,3.9 20.1,3 19,3 L 5,3 C 3.9,3 3,3.9 3,5 l 0,14 c 0,1.1 0.9,2 2,2 l 14,0 c 1.1,0 2,-0.9 2,-2 z M 8.5,13.5 11,16.51 14.5,12 19,18 5,18 8.5,13.5 Z"
           id="path4250" />
      </g>
    </g>
    <path
       style="fill:#ff7f2a;fill-opacity:1"
       inkscape:connector-curvature="0"
       d="m 517.34966,281.10315 48,0 0,48 -48,0 z"
       id="path4294" />
    <rect
       style="fill:#000000;fill-opacity:1;stroke:none"
       id="rect4316"
       width="28.586119"
       height="26.352829"
       x="279.608"
       y="242.12434" />
    <g
       id="g4312"
       inkscape:export-xdpi="120"
       inkscape:export-ydpi="120">
      <rect
         y="231.72461"
         x="270.35477"
         height="48"
         width="48"
         id="rect4308"
         style="fill:none;fill-opacity:1;stroke:none" />
      <path
         id="path4296"
         d="m 307.85477,237.72461 -27,0 c -2.475,0 -4.5,2.025 -4.5,4.5 l 0,27 c 0,2.475 2.025,4.5 4.5,4.5 l 27,0 c 2.475,0 4.5,-2.025 4.5,-4.5 l 0,-27 c 0,-2.475 -2.025,-4.5 -4.5,-4.5 z m -4.5,11.25 -6.75,0 0,12.375 c 0,3.105 -2.52,5.625 -5.625,5.625 -3.105,0 -5.625,-2.52 -5.625,-5.625 0,-3.105 2.52,-5.625 5.625,-5.625 1.2825,0 2.43,0.4275 3.375,1.1475 l 0,-12.3975 9,0 z"
         inkscape:connector-curvature="0"
         sodipodi:nodetypes="sssssssssccsssscccc"
         style="fill:#ff7f2a;fill-opacity:1" />
    </g>
    <g
       id="g83"
       inkscape:export-xdpi="147.35718"
       inkscape:export-ydpi="147.35718">
      <circle
         r="19.544355"
         cy="518.61566"
         cx="176.14091"
         id="path67"
         style="fill:#ff7f2a;fill-opacity:1" />
      <g
         transform="matrix(1.2062051,0,0,1.2062051,-36.321184,-106.9412)"
         id="g77">
        <path
           inkscape:connector-curvature="0"
           d="m 171.64455,521.3536 c 0.005,0.30335 0.10193,0.89162 0.24685,1.35135 0.30458,0.97309 0.82121,1.87329 1.54048,2.66708 0.73769,0.81506 1.64609,1.47047 2.69532,1.93511 1.10245,0.48879 2.29741,0.73728 3.53863,0.73524 1.23959,-10e-4 2.43414,-0.25546 3.537,-0.74753 1.04923,-0.46914 1.95681,-1.12741 2.69368,-1.94329 0.71804,-0.79623 1.23426,-1.69809 1.53925,-2.67117 0.15392,-0.49207 0.25054,-0.99069 0.28943,-1.49176 0.0384,-0.4933 0.0221,-0.98701 -0.0479,-1.48071 -0.13674,-0.96243 -0.46956,-1.8647 -0.98169,-2.68754 -0.46913,-0.75612 -1.07338,-1.41848 -1.79183,-1.97564 l 0.002,-7e-4 -7.25084,-5.56749 c -0.006,-0.005 -0.0115,-0.0102 -0.0184,-0.0143 -0.4761,-0.36557 -1.27602,-0.36394 -1.79879,0.002 -0.52932,0.36967 -0.58949,0.98168 -0.11913,1.36814 l -0.001,0.001 3.02365,2.45911 -9.21707,0.0102 c -0.005,0 -0.009,0 -0.0123,0 -0.76184,3.6e-4 -1.49422,0.50026 -1.63872,1.13233 -0.14943,0.64354 0.36802,1.17737 1.16016,1.17982 l -7e-4,0.003 4.67137,-0.009 -8.33649,6.39893 c -0.0102,0.008 -0.0221,0.016 -0.0319,0.0242 -0.78641,0.60178 -1.04022,1.60352 -0.54487,2.23682 0.5023,0.64477 1.57158,0.64599 2.36617,0.004 l 4.5498,-3.72327 c 0,0 -0.0668,0.5023 -0.0614,0.80401 z m 11.69174,1.68376 c -0.93789,0.95508 -2.24993,1.49668 -3.67046,1.49954 -1.42217,0.002 -2.73421,-0.53464 -3.67208,-1.48808 -0.4581,-0.46463 -0.79461,-0.99887 -1.00215,-1.56872 -0.20305,-0.5592 -0.28248,-1.15321 -0.23008,-1.75253 0.0499,-0.58622 0.22394,-1.14461 0.50272,-1.6506 0.27346,-0.49657 0.64967,-0.94606 1.11513,-1.32596 0.91087,-0.7426 2.07103,-1.1442 3.28482,-1.14584 1.21462,-0.002 2.37397,0.39668 3.28564,1.13643 0.46423,0.37826 0.84086,0.8257 1.11432,1.32227 0.2796,0.50517 0.45277,1.06151 0.50435,1.64937 0.0511,0.59851 -0.0279,1.19169 -0.23089,1.75172 -0.20796,0.57108 -0.54324,1.1053 -1.00132,1.5724"
           style="fill:#000000;fill-opacity:1;fill-rule:nonzero;stroke:none;stroke-width:0.40937442"
           id="path230" />
        <path
           id="path3026"
           style="fill:#000000;fill-opacity:1;fill-rule:nonzero;stroke:none;stroke-width:0.41264984"
           d="m 176.43087,519.84453 c 0.0438,-0.7799 0.42627,-1.46739 1.00233,-1.95472 0.56575,-0.47868 1.32626,-0.77124 2.15692,-0.77124 0.82942,0 1.59035,0.29256 2.15568,0.77124 0.57647,0.48733 0.95817,1.17482 1.00233,1.9539 0.0437,0.80219 -0.27813,1.54661 -0.84387,2.09873 -0.57648,0.56162 -1.396,0.91443 -2.31414,0.91443 -0.91856,0 -1.73973,-0.35281 -2.3162,-0.91443 -0.56533,-0.55212 -0.88679,-1.29654 -0.84305,-2.09791"
           inkscape:connector-curvature="0" />
      </g>
    </g>
    <rect
       style="fill:#ff7f2a;fill-opacity:1;stroke-width:0.89049655"
       id="rect37"
       width="36"
       height="36"
       x="217.24292"
       y="224.06255"
       ry="4.0484343" />
  </g>
</svg>
